# xmcd
#
# Track frame offsets:
#	150
#	29690
#	56417
#	91713
#	101426
#	118396
#	139746
#	150391
#	175080
#	201586
#	228085
#	255242
#	281742
#	298884
#
# Disc length: 4444 seconds
#
# Revision: 1
# Processed by: cddbd v1.5.2PL0 Copyright (c) Steve Scherf et al.
# Submitted via: EZCDAudioConverter 3.1.2.1
#
DISCID=c4115a0e
DTITLE=Jarek Smietana and Wojciech Karolak Band - I Love The Blues
DYEAR=2011
DGENRE=Blues
TTITLE0=His Majesty Blues
TTITLE1=St Louis Blues
TTITLE2=I Love You More Than You'll Ever Know
TTITLE3=Dukatari
TTITLE4=Not Fade Away
TTITLE5=One For My Baby
TTITLE6=Nordic Blues
TTITLE7=Camden Town
TTITLE8=Basin Street Blues
TTITLE9=You Don't Know What Love Is
TTITLE10=Free Market Blues
TTITLE11=I Need Your Love So Bad
TTITLE12=Birthday Blues
TTITLE13=Goodbye Pork Pie Hat
EXTD=
EXTT0=
EXTT1=
EXTT2=
EXTT3=
EXTT4=
EXTT5=
EXTT6=
EXTT7=
EXTT8=
EXTT9=
EXTT10=
EXTT11=
EXTT12=
EXTT13=
PLAYORDER=
